<svg id="Layer_1" data-name="Layer 1" xmlns="http://www.w3.org/2000/svg" viewBox="0 0 1000 1000"><defs><style>.cls-1{font-size:47.87px;stroke-width:3px;font-family:YuGothic-Bold, Yu Gothic;font-weight:700;letter-spacing:0.1em;}.cls-1,.cls-4{fill:#16759b;}.cls-1,.cls-5{stroke:#15759d;stroke-miterlimit:10;}.cls-2{fill:#231f20;stroke:#231f20;}.cls-3,.cls-6{fill:#e41e2d;}.cls-3{stroke:#e3202d;letter-spacing:0.1em;}.cls-5{fill:none;stroke-width:4.43px;}</style></defs><title>CARL</title><text class="cls-1" transform="translate(97.66 728.16) scale(0.71 0.82)">THE CERTIFIED<tspan class="cls-2" x="435.71" y="0"> </tspan><tspan class="cls-3" x="454.19" y="0">AFRICAN RISK LEADER</tspan></text><path class="cls-4" d="M343.87,415.47c.61,16.77,1.24,34,1.84,51.2.07,1.91,0,3.82,0,5.73a3.5,3.5,0,0,1-3,3,30.34,30.34,0,0,1-4.57.07c-2.45-.19-4.4-1.23-5.18-3.77q-1.52-4.93-3-9.89a224,224,0,0,0-17.65-43.53c-8.16-15-18.84-27.82-32.88-37.75s-29.53-14-46.56-13.32a71.61,71.61,0,0,0-48.48,20.72,97.61,97.61,0,0,0-25.08,40.62,218.4,218.4,0,0,0-8.73,39.17,383.86,383.86,0,0,0-1.81,79.1c1.45,18.75,5.45,37.07,13.11,54.45,6.12,13.86,14.4,26.16,25.89,36.06,13.2,11.38,28.8,17.24,46.09,18.49,8.39.6,16.83.76,25.18-.87a8,8,0,0,1,3.38.14,2.65,2.65,0,0,1,1.66,1.39,12.68,12.68,0,0,1,.28,7.89,5,5,0,0,1-2,2.66,14.57,14.57,0,0,1-4.19,1.72,93.25,93.25,0,0,1-35.25,2.54c-33.28-3.78-61.41-17.87-84.84-41.62-15.64-15.85-26-34.81-33-55.81-8.33-25.16-10.28-50.91-7-77.11.75-6.07,1.44-12.18,2.72-18.16A192,192,0,0,1,133.8,404.7c17.06-23.34,39.55-39.13,67.06-47.8A85.21,85.21,0,0,1,212,354.26a128.15,128.15,0,0,1,37.76-.75,101.16,101.16,0,0,1,38,12.37c6,3.4,11.79,7.12,17.68,10.69,2,1.18,3.9,2.4,5.9,3.52,1.42.8,4.21,0,5.05-1.56,1.65-3,3.23-6.08,4.78-9.15,2.07-4.1,4.17-8.19,6.1-12.35,1.51-3.28,4.13-4.3,7.44-4.18a9.58,9.58,0,0,1,3.37.45,5.23,5.23,0,0,1,2.46,2.15,8.66,8.66,0,0,1,.48,3.38C342,377.56,342.9,396.29,343.87,415.47Z"/><path class="cls-5" d="M343.87,415.47c.61,16.77,1.24,34,1.84,51.2.07,1.91,0,3.82,0,5.73a3.5,3.5,0,0,1-3,3,30.34,30.34,0,0,1-4.57.07c-2.45-.19-4.4-1.23-5.18-3.77q-1.52-4.93-3-9.89a224,224,0,0,0-17.65-43.53c-8.16-15-18.84-27.82-32.88-37.75s-29.53-14-46.56-13.32a71.61,71.61,0,0,0-48.48,20.72,97.61,97.61,0,0,0-25.08,40.62,218.4,218.4,0,0,0-8.73,39.17,383.86,383.86,0,0,0-1.81,79.1c1.45,18.75,5.45,37.07,13.11,54.45,6.12,13.86,14.4,26.16,25.89,36.06,13.2,11.38,28.8,17.24,46.09,18.49,8.39.6,16.83.76,25.18-.87a8,8,0,0,1,3.38.14,2.65,2.65,0,0,1,1.66,1.39,12.68,12.68,0,0,1,.28,7.89,5,5,0,0,1-2,2.66,14.57,14.57,0,0,1-4.19,1.72,93.25,93.25,0,0,1-35.25,2.54c-33.28-3.78-61.41-17.87-84.84-41.62-15.64-15.85-26-34.81-33-55.81-8.33-25.16-10.28-50.91-7-77.11.75-6.07,1.44-12.18,2.72-18.16A192,192,0,0,1,133.8,404.7c17.06-23.34,39.55-39.13,67.06-47.8A85.21,85.21,0,0,1,212,354.26a128.15,128.15,0,0,1,37.76-.75,101.16,101.16,0,0,1,38,12.37c6,3.4,11.79,7.12,17.68,10.69,2,1.18,3.9,2.4,5.9,3.52,1.42.8,4.21,0,5.05-1.56,1.65-3,3.23-6.08,4.78-9.15,2.07-4.1,4.17-8.19,6.1-12.35,1.51-3.28,4.13-4.3,7.44-4.18a9.58,9.58,0,0,1,3.37.45,5.23,5.23,0,0,1,2.46,2.15,8.66,8.66,0,0,1,.48,3.38C342,377.56,342.9,396.29,343.87,415.47Z"/><path class="cls-6" d="M699.25,651.72a64.42,64.42,0,0,1-18.52-8.57,90.7,90.7,0,0,1-17.5-15.78q-8.75-9.95-20.06-25.38L579,512.81q39.44-8.91,58-29.84t18.52-50.07a69.59,69.59,0,0,0-4.46-25,76,76,0,0,0-12.18-21.09,78.08,78.08,0,0,0-18-16.13,92.76,92.76,0,0,0-22-10.46q-11.65-3.76-29.84-5.66a428.42,428.42,0,0,0-43.21-1.88H440.65c.77,1.47,5.24,10.27,5.24,10.27s14.87-.18,14.94,0l.08,24.52,40.9,103.14-.64-116q21.94-4.45,36-4.46a74.18,74.18,0,0,1,27.09,4.8,62.35,62.35,0,0,1,21.27,13.55,59.7,59.7,0,0,1,13.72,20.92,71.87,71.87,0,0,1,4.8,26.58,65.43,65.43,0,0,1-5.66,27.27,59.62,59.62,0,0,1-17,21.78q-11.31,9.27-28.12,14.41t-39.1,5.14c-.65,0-6.77,0-7.59,0,0,0,6.46,14.57,6.54,14.63.72.05,6,.08,5.58.11,0,0,1.63,0,4.55-.12,3.09-.11,6.57-.28,10.47-.52L639.4,664.42h83v-8.58A137.51,137.51,0,0,1,699.25,651.72Z"/><path class="cls-6" d="M470.27,443.32l-.3-.76m26.59,66.76c-1-2.54-2-5.08-3-7.61-4.07-9.9-8-19.85-12-29.79-2-5-4-9.93-5.95-14.91l-5.34-13.69m-.3-.76q-6.57-16.81-13.12-33.63c-5.41-13.89-11.34-27.58-16.1-41.72-1.1-3.25-2.8-6.3-3.91-9.54-1.8-5.31-5.64-6.86-10.77-6.42-.76.07-1.53.06-2.3.09a6,6,0,0,0-5.48,3.55q-3.37,7.29-6.48,14.69c-1.48,3.52-2.67,7.16-4.1,10.71-4.71,11.7-9.51,23.37-14.2,35.08-3,7.45-5.79,15-8.78,22.42-4.85,12.06-9.79,24.08-14.66,36.13q-12.69,31.38-25.34,62.78c-4,9.92-8.29,19.74-12.23,29.69-6.05,15.28-11.76,30.7-17.93,45.92a129.1,129.1,0,0,1-11.68,22.34c-5.9,9-14.29,13.5-24.54,15.21-2.26.38-4.57.49-6.83.87a6.2,6.2,0,0,0-4.49,4.72,17.42,17.42,0,0,0-.3,2.27c-.33,7.65.87,9.86,8.69,9.85q47.67,0,95.33,0a17.16,17.16,0,0,0,4.54-.43,4.41,4.41,0,0,0,2.62-1.92,18.8,18.8,0,0,0,1.58-10c-.18-2.11-2.45-4.51-4.45-4.64-2.28-.15-4.58-.19-6.87-.25-3.45-.08-6.91.07-10.33-.26a31.06,31.06,0,0,1-23.11-13.29,9.67,9.67,0,0,1-1.71-4.2c-.89-6.87-1.16-13.81,1.18-20.44,4.33-12.25,8.68-24.51,13.56-36.55,4.12-10.18,3.39-9.41,14.28-9.42q51.1-.06,102.22,0c1.91,0,3.83.06,5.74.15a4.9,4.9,0,0,1,4.43,3.1c1.44,3.13,2.81,6.28,4.08,9.48,1.7,4.26,3.24,8.58,4.93,12.84q7.17,18.13,14.42,36.24a25.75,25.75,0,0,1,1.35,13.54,5.36,5.36,0,0,1-2.34,3.77,25.51,25.51,0,0,1-13.93,4.74c-6.12.15-12.25.22-18.36.47-4.07.16-6.47,2.53-6.72,6.4a43.92,43.92,0,0,0,0,4.59c.18,3.86,1.94,5.77,5.51,6,1.9.1,3.82.1,5.73.1q56.28,0,112.56,0h0c3.34-.25,9.18-.83,9.18-.83s3.37-15.26-2.84-16.53c-5.24.12-16.65,0-21.9-.16a20,20,0,0,1-13.37-5.83A31.25,31.25,0,0,1,544.45,632c-7.41-20.09-16-39.73-23.14-59.92a15.24,15.24,0,0,0-1.14-3.23c-3.6-5.54-5-12-7.38-18-.72-1.77-1.1-3.68-1.9-5.41-5.42-11.77-9.66-24-14.33-36.08m-34.78,38.75a57.64,57.64,0,0,1-6.82.51c-14.12,0-28.25,0-42.38,0v0c-14.12,0-28.25,0-42.38,0a60,60,0,0,1-6.8-.57c-1.29-.16-2.75-2.32-2.39-3.43,1-2.89,1.84-5.81,3-8.63,3.83-9.56,7.78-19.07,11.65-28.6Q387.9,477.16,400.12,447c3.71-9.19,7.29-18.43,10.93-27.65.15-.35.2-.81.45-1a9.8,9.8,0,0,1,2.48-1.91c.26-.12,1.3.82,1.55,1.45,2.77,7.09,5.41,14.24,8.18,21.34C429.8,454.78,436,470.38,442.05,486c2.22,5.68,4.28,11.42,6.52,17.1,5,12.76,10.14,25.5,15.2,38.26.28.7.43,1.46.64,2.19C464.85,545.11,463.32,547.89,461.78,548.07Z"/><path class="cls-6" d="M639.59,652.06a26.69,26.69,0,0,0,9.94-8.86q4.72-7,4.73-33.4V412.33q0-28.89-6.31-35.88-8.81-9.93-26.18-9.93H610.26v-8.35H748.83v8.35a157,157,0,0,0-20.65,1.12A54,54,0,0,0,714.64,371a26.38,26.38,0,0,0-8.36,5.3,30.9,30.9,0,0,0-5.07,6.66q-3.62,7-3.61,34.53V609.8q0,7.91.56,13.54a39,39,0,0,0,1.92,9.37,17.13,17.13,0,0,0,3.61,6.09,15.47,15.47,0,0,0,5.87,3.73q5.41,2.25,35.2,2.25h22.35q35,0,49.42-5.19a56.81,56.81,0,0,0,13.54-6.77,61.4,61.4,0,0,0,12.3-11.39,114.74,114.74,0,0,0,11.74-17.27A241.35,241.35,0,0,0,866,579.56l7.44,1.58-26.18,83.05H639.4"/></svg>