<svg id="Layer_1" data-name="Layer 1" xmlns="http://www.w3.org/2000/svg" viewBox="0 0 1000 1000"><defs><style>.cls-1{fill:#14739a;}.cls-2,.cls-4{fill:#e3202d;}.cls-3,.cls-6,.cls-7{fill:#17749c;}.cls-4{font-size:42px;stroke:#e3212d;stroke-miterlimit:10;stroke-width:3px;font-family:YuGothic-Bold, Yu Gothic;font-weight:700;letter-spacing:0.1em;}.cls-5{fill:#231f20;stroke:#231f20;letter-spacing:0.1em;}.cls-6,.cls-7{stroke:#17749d;}.cls-7{letter-spacing:0.09em;}</style></defs><title>Artboard 4</title><path class="cls-1" d="M834.16,373.81c1.15-5.06,2.86-8.88,5.16-11.46a15.83,15.83,0,0,1,8.6-5,57.74,57.74,0,0,1,12.32-1.15h8.89V349H795.46L702.6,552.81,608,349h-66c11,4.35,20.8,11.72,27.15,21.55,8.26,5.45,16.22,11.38,24.14,17.32a42,42,0,0,1,15,15l4.2,10c2.89,8.93,1.59,18.55-1.87,27.11l77.93,169.63h6.59l100.31-219v174q0,12.9-1.72,20.35t-5.3,11.32a16.49,16.49,0,0,1-8.74,5,55.59,55.59,0,0,1-12,1.15h-9.17v7.17H869.13v-7.17h-8.89a72.33,72.33,0,0,1-11.75-.86,15.23,15.23,0,0,1-8.74-4.59q-3.59-3.72-5.45-11.32t-1.86-21.06V394.3Q832.44,381.42,834.16,373.81Z"/><path class="cls-2" d="M358.86,400.53c.51,14,1,28.4,1.54,42.78.06,1.6,0,3.19,0,4.79a2.93,2.93,0,0,1-2.53,2.46,25.65,25.65,0,0,1-3.82.06c-2-.15-3.68-1-4.33-3.15-.84-2.75-1.68-5.5-2.5-8.26a186.79,186.79,0,0,0-14.75-36.38c-6.82-12.55-15.74-23.25-27.48-31.55s-24.67-11.71-38.91-11.13a59.85,59.85,0,0,0-40.51,17.32,81.55,81.55,0,0,0-21,33.94,182.93,182.93,0,0,0-7.29,32.73,320.38,320.38,0,0,0-1.51,66.1,138.47,138.47,0,0,0,11,45.51c5.11,11.58,12,21.85,21.63,30.13,11,9.51,24.08,14.41,38.52,15.45,7,.5,14.06.64,21-.73a6.77,6.77,0,0,1,2.83.12,2.24,2.24,0,0,1,1.39,1.16,10.72,10.72,0,0,1,.23,6.6,4.19,4.19,0,0,1-1.67,2.22,12.66,12.66,0,0,1-3.5,1.44,78.18,78.18,0,0,1-29.46,2.12c-27.81-3.16-51.32-14.93-70.9-34.78-13.07-13.25-21.77-29.09-27.58-46.64-7-21-8.59-42.54-5.86-64.44.63-5.07,1.2-10.18,2.27-15.17a160.26,160.26,0,0,1,27.64-61.7c14.26-19.51,33-32.71,56-39.95a72,72,0,0,1,9.31-2.21,107.37,107.37,0,0,1,31.56-.63A84.52,84.52,0,0,1,312,359.09c5,2.84,9.86,5.94,14.78,8.92,1.64,1,3.26,2,4.93,2.95a3.62,3.62,0,0,0,4.22-1.31c1.38-2.52,2.7-5.08,4-7.65,1.73-3.42,3.48-6.83,5.09-10.32,1.26-2.73,3.46-3.59,6.22-3.48a7.87,7.87,0,0,1,2.81.37,4.33,4.33,0,0,1,2.06,1.8,7.2,7.2,0,0,1,.4,2.82C357.27,368.84,358.06,384.5,358.86,400.53Z"/><path class="cls-1" d="M655.84,598a54.07,54.07,0,0,1-15.48-7.16,75.74,75.74,0,0,1-14.62-13.19q-7.31-8.31-16.76-21.21l-53.6-74.52q33-7.46,48.44-24.94t15.47-41.84a58.19,58.19,0,0,0-3.72-20.93,63.51,63.51,0,0,0-10.18-17.62,64.91,64.91,0,0,0-15-13.47A77.26,77.26,0,0,0,572,354.32q-9.75-3.15-24.93-4.73A359.63,359.63,0,0,0,511,348H439.74c.64,1.23,4.38,8.58,4.38,8.58s12.42-.15,12.48,0l.07,20.5,34.18,86.19-.54-96.95q18.35-3.72,30.1-3.72a61.87,61.87,0,0,1,22.64,4A52,52,0,0,1,560.82,378a49.73,49.73,0,0,1,11.47,17.48,60.17,60.17,0,0,1,4,22.22,54.69,54.69,0,0,1-4.73,22.78,49.83,49.83,0,0,1-14.19,18.2,68,68,0,0,1-23.5,12q-14,4.31-32.67,4.3c-.54,0-5.66,0-6.34,0,0,0,5.4,12.17,5.46,12.22.6,0,5,.07,4.66.09,0,0,1.37,0,3.81-.1s5.49-.24,8.74-.43l88.28,121.82h69.36v-7.17A115.5,115.5,0,0,1,655.84,598Z"/><path class="cls-3" d="M464.49,423.8l-.25-.64M486.46,479q-1.23-3.19-2.52-6.36c-3.4-8.27-6.68-16.59-10-24.89-1.67-4.15-3.34-8.3-5-12.47l-4.47-11.43m-.25-.64q-5.49-14-11-28.1c-4.52-11.61-9.48-23.05-13.46-34.87-.91-2.71-2.34-5.26-3.26-8-1.51-4.44-4.72-5.73-9-5.36-.63.05-1.28.05-1.91.08a5,5,0,0,0-4.58,3q-2.83,6.09-5.42,12.27c-1.24,2.95-2.23,6-3.42,9-3.94,9.78-8,19.53-11.87,29.31-2.5,6.23-4.85,12.51-7.34,18.73-4.05,10.08-8.18,20.13-12.25,30.2q-10.61,26.22-21.17,52.46c-3.36,8.29-6.93,16.5-10.23,24.81-5.05,12.77-9.82,25.65-15,38.38a108.34,108.34,0,0,1-9.76,18.66c-4.93,7.5-11.94,11.29-20.51,12.71-1.89.32-3.82.41-5.71.73a5.17,5.17,0,0,0-3.75,3.94,17.33,17.33,0,0,0-.25,1.9c-.28,6.4.73,8.24,7.26,8.23q39.84,0,79.66,0a14.55,14.55,0,0,0,3.8-.36,3.74,3.74,0,0,0,2.19-1.6,15.73,15.73,0,0,0,1.32-8.38,4.72,4.72,0,0,0-3.71-3.88c-1.92-.12-3.84-.15-5.75-.2-2.88-.08-5.78.05-8.63-.23a26,26,0,0,1-19.31-11.1,8,8,0,0,1-1.43-3.5c-.75-5.75-1-11.55,1-17.09,3.62-10.23,7.26-20.48,11.33-30.54,3.44-8.51,2.84-7.87,11.94-7.88q42.7,0,85.42,0c1.6,0,3.2,0,4.79.12a4.09,4.09,0,0,1,3.71,2.59q1.8,3.91,3.41,7.92c1.42,3.56,2.7,7.17,4.11,10.74q6,15.15,12.06,30.27a21.55,21.55,0,0,1,1.12,11.32,4.45,4.45,0,0,1-1.95,3.15,21.23,21.23,0,0,1-11.64,4c-5.12.13-10.23.19-15.35.39-3.4.14-5.4,2.12-5.61,5.35a35.14,35.14,0,0,0,0,3.84c.15,3.23,1.62,4.82,4.6,5,1.6.09,3.2.09,4.8.09q47,0,94.06,0h0c-.12-1.43-.21-2.84-.28-4.26a63.21,63.21,0,0,1,.44-10.25c-4.38.1-8.77,0-13.16-.13a16.72,16.72,0,0,1-11.17-4.87,26.19,26.19,0,0,1-6.92-10.23c-6.19-16.79-13.36-33.21-19.33-50.08a12.53,12.53,0,0,0-1-2.7c-3-4.63-4.14-10-6.17-15-.59-1.48-.92-3.07-1.58-4.52-4.53-9.84-8.08-20.06-12-30.15M457.4,511.33a49.52,49.52,0,0,1-5.7.43c-11.8,0-23.61,0-35.41,0v0c-11.81,0-23.62,0-35.42,0a51.39,51.39,0,0,1-5.68-.48c-1.08-.13-2.31-1.94-2-2.87.8-2.42,1.53-4.86,2.48-7.21,3.2-8,6.5-15.93,9.73-23.9q10.26-25.24,20.47-50.48c3.1-7.68,6.1-15.4,9.14-23.11a2.36,2.36,0,0,1,.37-.87,8.06,8.06,0,0,1,2.07-1.59c.22-.1,1.09.68,1.29,1.21,2.32,5.93,4.53,11.9,6.84,17.83,5.09,13.06,10.24,26.1,15.33,39.15,1.85,4.75,3.57,9.55,5.44,14.29,4.21,10.67,8.48,21.31,12.71,32a15.45,15.45,0,0,1,.53,1.83C460,508.85,458.68,511.18,457.4,511.33Z"/><text class="cls-4" transform="translate(154.12 661.83) scale(0.71 0.82)">THE CERTIFIED<tspan class="cls-5" x="382.31" y="0"> </tspan><tspan class="cls-6" x="398.52" y="0">AFRICAN RISK MAN</tspan><tspan class="cls-7" x="882.69" y="0">A</tspan><tspan class="cls-6" x="915.1" y="0">GER</tspan></text></svg>